<svg width="17" height="17" viewBox="0 0 17 17" fill="none" xmlns="http://www.w3.org/2000/svg">
<path d="M8.70134 16.1925L1.74547 9.2366C-0.319889 7.17124 -0.319889 3.81102 1.74547 1.74566C3.81083 -0.319703 7.17105 -0.319703 9.23641 1.74566L15.6572 8.16646C17.134 9.64325 17.134 12.0403 15.6572 13.5171C14.1804 14.9939 11.7833 14.9939 10.3065 13.5171L3.88574 7.09633C3.00288 6.21347 3.00288 4.76879 3.88574 3.88593C4.7686 3.00306 6.21328 3.00306 7.09614 3.88592L12.9819 9.77166C13.2762 10.0659 13.2762 10.5475 12.9819 10.8418C12.6876 11.1361 12.206 11.1361 11.9117 10.8418L6.02601 4.95606C5.73172 4.66177 5.25016 4.66177 4.95587 4.95606C4.66159 5.25035 4.66159 5.73191 4.95587 6.02619L11.3767 12.447C12.2595 13.3299 13.7042 13.3299 14.5871 12.447C15.4699 11.5641 15.4699 10.1195 14.5871 9.2366L8.16628 2.81579C6.68949 1.33901 4.29239 1.33901 2.8156 2.81579C1.33882 4.29258 1.33882 6.68968 2.8156 8.16646L9.77148 15.1223C10.0658 15.4166 10.0658 15.8982 9.77148 16.1925C9.47719 16.4868 8.99563 16.4868 8.70134 16.1925Z" fill="#ADBECE"/>
</svg>
