<svg width="15" height="14" viewBox="0 0 15 14" fill="none" xmlns="http://www.w3.org/2000/svg">
<path fill-rule="evenodd" clip-rule="evenodd" d="M13.3929 5.60915L13.4513 6.13589L14.5 6.01727L14.4409 5.49123C14.1195 2.61252 11.8919 0.378462 9.02352 0.0586052L8.4988 0L8.38275 1.05277L8.90676 1.11138C11.2821 1.37616 13.1263 3.22611 13.3929 5.60915Z" fill="white"/>
<path fill-rule="evenodd" clip-rule="evenodd" d="M10.909 5.65879L11.0103 6.17847L12.0457 5.97653L11.9451 5.45685C11.6595 3.98678 10.5299 2.8521 9.06619 2.56684L8.54851 2.46587L8.34664 3.50523L8.86433 3.6062C9.90391 3.80885 10.7065 4.61449 10.909 5.65879Z" fill="white"/>
<path fill-rule="evenodd" clip-rule="evenodd" d="M8.62652 9.56295C8.26076 9.43586 7.20922 9.00938 6.2477 8.04487C5.34527 7.13896 4.96897 6.13773 4.85854 5.78892L6.05357 3.70526L3.45249 0.118342L3.17747 0.280742C2.06473 0.93599 1.24882 1.75505 0.609447 2.85866L0.567948 2.97164C0.206413 4.90914 1.31142 7.76455 3.31533 10.0777C5.48876 12.5864 8.3107 14 11.1115 14C11.2381 14 11.3655 13.9972 11.4914 13.9915L11.5751 13.988L11.6475 13.9463C12.7743 13.313 13.5938 12.4911 14.224 11.3599L14.3752 11.0881L10.698 8.36614L8.62652 9.56295Z" fill="white"/>
</svg>
