<svg width="25" height="30" viewBox="0 0 25 30" fill="none" xmlns="http://www.w3.org/2000/svg">
<path d="M21.0238 28.5413L21.27 30H3.52125L3.76625 28.5425C3.955 27.4212 4.36 26.3712 4.935 25.4312C7.15875 26.7375 9.73875 27.5 12.4987 27.5C15.1937 27.5 17.7188 26.775 19.9075 25.5262C20.455 26.4438 20.8412 27.4613 21.0238 28.5413ZM12.5 8.75C10.4325 8.75 8.75 10.4325 8.75 12.5C8.75 14.5675 10.4325 16.25 12.5 16.25C14.5675 16.25 16.25 14.5675 16.25 12.5C16.25 10.4325 14.5675 8.75 12.5 8.75ZM25 12.5C25 19.3925 19.3925 25 12.5 25C5.6075 25 0 19.3925 0 12.5C0 5.6075 5.6075 0 12.5 0C19.3925 0 25 5.6075 25 12.5ZM18.75 12.5C18.75 9.05375 15.9462 6.25 12.5 6.25C9.05375 6.25 6.25 9.05375 6.25 12.5C6.25 15.9462 9.05375 18.75 12.5 18.75C15.9462 18.75 18.75 15.9462 18.75 12.5Z" fill="#64748B"/>
</svg>
