<svg width="30" height="30" viewBox="0 0 30 30" fill="none" xmlns="http://www.w3.org/2000/svg">
<path d="M25 27.4999V6.2486C25 4.18098 23.3175 2.49838 21.25 2.49838H19.7625C19.5375 1.86459 19.1625 1.28831 18.6275 0.849533C17.7563 0.13449 16.6225 -0.145526 15.515 0.0719868L8.01375 1.57208C6.2675 1.9221 5 3.46969 5 5.24854V27.4999H0V30H30V27.4999H25ZM15.625 16.5617C14.59 16.5617 13.75 15.7217 13.75 14.6866C13.75 13.6515 14.59 12.8115 15.625 12.8115C16.66 12.8115 17.5 13.6515 17.5 14.6866C17.5 15.7217 16.66 16.5617 15.625 16.5617ZM22.5 27.4999H20V4.99853H21.25C21.9387 4.99853 22.5 5.55856 22.5 6.2486V27.4999Z" fill="#64748B"/>
</svg>
