<svg width="30" height="30" viewBox="0 0 30 30" fill="none" xmlns="http://www.w3.org/2000/svg">
<path d="M19.875 20.1001C19.6357 19.3378 19.159 18.6723 18.5149 18.2008C17.8707 17.7293 17.0928 17.4766 16.295 17.4797H13.705C12.9072 17.4766 12.1293 17.7293 11.4851 18.2008C10.841 18.6723 10.3643 19.3378 10.125 20.1001L9.285 22.7531C9.00625 24.1278 7.82 27.2628 10 27.4957V28.7477C10 29.0797 10.1317 29.3982 10.3661 29.633C10.6005 29.8677 10.9185 29.9997 11.25 29.9997C11.5815 29.9997 11.8995 29.8677 12.1339 29.633C12.3683 29.3982 12.5 29.0797 12.5 28.7477V27.4957H17.5V28.7477C17.5 29.0797 17.6317 29.3982 17.8661 29.633C18.1005 29.8677 18.4185 29.9997 18.75 29.9997C19.0815 29.9997 19.3995 29.8677 19.6339 29.633C19.8683 29.3982 20 29.0797 20 28.7477V27.4957C22.18 27.2603 21 24.1303 20.71 22.7519L19.875 20.1001ZM13.705 19.9837H16.295C16.5608 19.984 16.8196 20.0691 17.0338 20.2267C17.248 20.3843 17.4065 20.6061 17.4862 20.8601L18 22.4877H12L12.5175 20.8601C12.597 20.6068 12.755 20.3853 12.9684 20.2278C13.1819 20.0702 13.4398 19.9848 13.705 19.9837ZM30 12.1738V23.8987C29.9982 25.2856 29.5373 26.6328 28.6896 27.7295C27.8419 28.8262 26.6551 29.6104 25.315 29.9596C25.1295 30.008 24.9354 30.013 24.7477 29.9742C24.56 29.9355 24.3837 29.8541 24.2324 29.7362C24.0812 29.6183 23.959 29.4672 23.8753 29.2945C23.7917 29.1218 23.7488 28.9321 23.75 28.7401V16.2277C23.75 15.2316 23.3549 14.2762 22.6517 13.5718C21.9484 12.8675 20.9946 12.4717 20 12.4717H10C9.00544 12.4717 8.05161 12.8675 7.34835 13.5718C6.64509 14.2762 6.25 15.2316 6.25 16.2277V28.7401C6.2512 28.9321 6.20832 29.1218 6.12467 29.2945C6.04101 29.4672 5.91883 29.6183 5.76756 29.7362C5.61629 29.8541 5.43998 29.9355 5.25227 29.9742C5.06456 30.013 4.87047 30.008 4.685 29.9596C3.34487 29.6104 2.1581 28.8262 1.31039 27.7295C0.462677 26.6328 0.00184611 25.2856 2.95286e-07 23.8987V12.1738C-0.000313981 11.1496 0.250243 10.1411 0.729699 9.23651C1.20916 8.33195 1.90287 7.55902 2.75 6.98551L11.5 1.07109C12.5328 0.372994 13.7503 0 14.9963 0C16.2422 0 17.4597 0.372994 18.4925 1.07109L27.2425 6.98551C28.091 7.55817 28.7862 8.33073 29.267 9.23534C29.7478 10.14 29.9995 11.149 30 12.1738Z" fill="#64748B"/>
</svg>
