<svg width="19" height="20" viewBox="0 0 19 20" fill="none" xmlns="http://www.w3.org/2000/svg">
<path fill-rule="evenodd" clip-rule="evenodd" d="M0.874985 16.9999V8.898C0.874985 8.32673 1.11928 7.78272 1.54626 7.40318L8.54626 1.18096C9.30403 0.507387 10.4459 0.507387 11.2037 1.18096L18.2037 7.40318C18.6307 7.78272 18.875 8.32673 18.875 8.898V16.9999C18.875 18.6567 17.5318 19.9999 15.875 19.9999H3.87499C2.21813 19.9999 0.874985 18.6567 0.874985 16.9999ZM5.87498 13.9999C5.3227 13.9999 4.87498 14.4476 4.87498 14.9999C4.87498 15.5522 5.3227 15.9999 5.87498 15.9999H13.875C14.4273 15.9999 14.875 15.5522 14.875 14.9999C14.875 14.4476 14.4273 13.9999 13.875 13.9999H5.87498Z" fill="#ADBECE"/>
</svg>
