<svg width="24" height="28" viewBox="0 0 24 28" fill="none" xmlns="http://www.w3.org/2000/svg">
<path d="M17.4545 8.16667C17.4545 8.47609 17.3396 8.77283 17.135 8.99162C16.9304 9.21042 16.653 9.33333 16.3636 9.33333H7.63636C7.34704 9.33333 7.06956 9.21042 6.86497 8.99162C6.66039 8.77283 6.54545 8.47609 6.54545 8.16667C6.54545 7.85725 6.66039 7.5605 6.86497 7.34171C7.06956 7.12292 7.34704 7 7.63636 7H16.3636C16.653 7 16.9304 7.12292 17.135 7.34171C17.3396 7.5605 17.4545 7.85725 17.4545 8.16667ZM24 5.83333V22.1667C23.9983 23.7132 23.423 25.1958 22.4005 26.2894C21.3779 27.383 19.9916 27.9981 18.5455 28H5.45455C4.00844 27.9981 2.62206 27.383 1.59951 26.2894C0.576962 25.1958 0.00173221 23.7132 0 22.1667V5.83333C0.00173221 4.28681 0.576962 2.80415 1.59951 1.71059C2.62206 0.617029 4.00844 0.0018525 5.45455 0L18.5455 0C19.9916 0.0018525 21.3779 0.617029 22.4005 1.71059C23.423 2.80415 23.9983 4.28681 24 5.83333ZM6.54545 21C6.54545 20.7693 6.48147 20.5437 6.3616 20.3518C6.24173 20.16 6.07136 20.0104 5.87202 19.9221C5.67268 19.8338 5.45334 19.8107 5.24172 19.8557C5.0301 19.9008 4.83572 20.0119 4.68316 20.175C4.53059 20.3382 4.42669 20.5461 4.3846 20.7724C4.3425 20.9987 4.36411 21.2333 4.44668 21.4465C4.52925 21.6596 4.66907 21.8419 4.84847 21.97C5.02787 22.0982 5.23878 22.1667 5.45455 22.1667C5.74387 22.1667 6.02135 22.0438 6.22593 21.825C6.43052 21.6062 6.54545 21.3094 6.54545 21ZM6.54545 16.3333C6.54545 16.1026 6.48147 15.877 6.3616 15.6852C6.24173 15.4933 6.07136 15.3438 5.87202 15.2555C5.67268 15.1672 5.45334 15.1441 5.24172 15.1891C5.0301 15.2341 4.83572 15.3452 4.68316 15.5084C4.53059 15.6715 4.42669 15.8794 4.3846 16.1057C4.3425 16.332 4.36411 16.5666 4.44668 16.7798C4.52925 16.993 4.66907 17.1752 4.84847 17.3034C5.02787 17.4316 5.23878 17.5 5.45455 17.5C5.74387 17.5 6.02135 17.3771 6.22593 17.1583C6.43052 16.9395 6.54545 16.6428 6.54545 16.3333ZM10.9091 21C10.9091 20.7693 10.8451 20.5437 10.7252 20.3518C10.6054 20.16 10.435 20.0104 10.2357 19.9221C10.0363 19.8338 9.81697 19.8107 9.60536 19.8557C9.39374 19.9008 9.19936 20.0119 9.04679 20.175C8.89423 20.3382 8.79033 20.5461 8.74823 20.7724C8.70614 20.9987 8.72775 21.2333 8.81031 21.4465C8.89288 21.6596 9.03271 21.8419 9.21211 21.97C9.3915 22.0982 9.60242 22.1667 9.81818 22.1667C10.1075 22.1667 10.385 22.0438 10.5896 21.825C10.7942 21.6062 10.9091 21.3094 10.9091 21ZM10.9091 16.3333C10.9091 16.1026 10.8451 15.877 10.7252 15.6852C10.6054 15.4933 10.435 15.3438 10.2357 15.2555C10.0363 15.1672 9.81697 15.1441 9.60536 15.1891C9.39374 15.2341 9.19936 15.3452 9.04679 15.5084C8.89423 15.6715 8.79033 15.8794 8.74823 16.1057C8.70614 16.332 8.72775 16.5666 8.81031 16.7798C8.89288 16.993 9.03271 17.1752 9.21211 17.3034C9.3915 17.4316 9.60242 17.5 9.81818 17.5C10.1075 17.5 10.385 17.3771 10.5896 17.1583C10.7942 16.9395 10.9091 16.6428 10.9091 16.3333ZM19.6364 21C19.6364 20.6906 19.5214 20.3938 19.3168 20.175C19.1123 19.9562 18.8348 19.8333 18.5455 19.8333H14.1818C13.8925 19.8333 13.615 19.9562 13.4104 20.175C13.2058 20.3938 13.0909 20.6906 13.0909 21C13.0909 21.3094 13.2058 21.6062 13.4104 21.825C13.615 22.0438 13.8925 22.1667 14.1818 22.1667H18.5455C18.8348 22.1667 19.1123 22.0438 19.3168 21.825C19.5214 21.6062 19.6364 21.3094 19.6364 21ZM14.1818 17.5C14.3976 17.5 14.6085 17.4316 14.7879 17.3034C14.9673 17.1752 15.1071 16.993 15.1897 16.7798C15.2723 16.5666 15.2939 16.332 15.2518 16.1057C15.2097 15.8794 15.1058 15.6715 14.9532 15.5084C14.8006 15.3452 14.6063 15.2341 14.3946 15.1891C14.183 15.1441 13.9637 15.1672 13.7643 15.2555C13.565 15.3438 13.3946 15.4933 13.2748 15.6852C13.1549 15.877 13.0909 16.1026 13.0909 16.3333C13.0909 16.6428 13.2058 16.9395 13.4104 17.1583C13.615 17.3771 13.8925 17.5 14.1818 17.5ZM19.6364 16.3333C19.6364 16.1026 19.5724 15.877 19.4525 15.6852C19.3326 15.4933 19.1623 15.3438 18.9629 15.2555C18.7636 15.1672 18.5442 15.1441 18.3326 15.1891C18.121 15.2341 17.9266 15.3452 17.7741 15.5084C17.6215 15.6715 17.5176 15.8794 17.4755 16.1057C17.4334 16.332 17.455 16.5666 17.5376 16.7798C17.6202 16.993 17.76 17.1752 17.9394 17.3034C18.1188 17.4316 18.3297 17.5 18.5455 17.5C18.8348 17.5 19.1123 17.3771 19.3168 17.1583C19.5214 16.9395 19.6364 16.6428 19.6364 16.3333ZM19.6364 8.16667C19.6364 7.23841 19.2916 6.34817 18.6778 5.69179C18.064 5.03542 17.2316 4.66667 16.3636 4.66667H7.63636C6.76838 4.66667 5.93595 5.03542 5.3222 5.69179C4.70844 6.34817 4.36364 7.23841 4.36364 8.16667C4.36364 9.09492 4.70844 9.98516 5.3222 10.6415C5.93595 11.2979 6.76838 11.6667 7.63636 11.6667H16.3636C17.2316 11.6667 18.064 11.2979 18.6778 10.6415C19.2916 9.98516 19.6364 9.09492 19.6364 8.16667Z" fill="#64748B"/>
</svg>
