<svg width="34" height="36" viewBox="0 0 34 36" fill="none" xmlns="http://www.w3.org/2000/svg">
<path d="M16.8887 0.907333C16.7665 0.981996 16.6104 1.13811 16.5358 1.26028C16.4068 1.4707 16.4 1.60645 16.4 3.41871C16.4 5.1631 16.4136 5.3803 16.5222 5.58392C16.7597 6.02511 17.357 6.18801 17.8186 5.94366C18.2801 5.69252 18.3005 5.59071 18.3005 3.41871C18.3005 1.60645 18.2937 1.4707 18.1648 1.26028C17.9883 0.975208 17.6489 0.771583 17.3503 0.771583C17.2213 0.771583 17.0109 0.832671 16.8887 0.907333Z" fill="#64748B"/>
<path d="M5.83866 5.45501C5.6554 5.52968 5.34996 5.8962 5.29566 6.10661C5.2753 6.19485 5.2753 6.3849 5.30245 6.52744C5.34317 6.73785 5.55358 6.98899 6.68031 8.1225C7.41336 8.86234 8.10568 9.51394 8.21428 9.57503C8.49936 9.72435 9.022 9.66326 9.25277 9.45285C9.5107 9.2085 9.63287 8.8827 9.57178 8.55011C9.53106 8.29898 9.38852 8.12929 8.19392 6.9279C7.46087 6.18806 6.78212 5.53646 6.68031 5.48216C6.47668 5.38035 6.06265 5.35999 5.83866 5.45501Z" fill="#64748B"/>
<path d="M27.9727 5.51617C27.6469 5.71979 25.2373 8.18366 25.1627 8.39407C25.0541 8.67236 25.0677 8.83526 25.2238 9.15427C25.4002 9.51401 25.6582 9.66333 26.1129 9.66333H26.4727L27.8845 8.25832C29.3574 6.79222 29.4863 6.61574 29.4049 6.16777C29.2827 5.52974 28.5089 5.17679 27.9727 5.51617Z" fill="#64748B"/>
<path d="M15.9249 9.01839C14.6488 9.25595 13.3592 9.79216 12.3614 10.5049C9.46997 12.5818 8.17355 16.2267 9.10344 19.6951C9.45639 21.0119 10.108 22.1861 11.1533 23.3536C11.4587 23.7065 11.8388 24.1749 11.9949 24.4057C12.599 25.288 13.0741 26.4555 13.2845 27.5686C13.3796 28.0845 13.6443 28.4714 14.038 28.6818C14.3298 28.8379 14.3366 28.8379 17.3503 28.8379C20.3503 28.8379 20.3707 28.8379 20.6558 28.6886C21.0494 28.4714 21.2666 28.1591 21.3956 27.6094C21.83 25.7224 22.3051 24.779 23.5269 23.374C24.2464 22.5527 24.6672 21.9418 25.0269 21.202C25.5496 20.1363 25.8278 19.0503 25.8821 17.8218C25.9975 15.4258 25.1152 13.1452 23.3911 11.4279C22.2983 10.3284 20.9612 9.56139 19.468 9.1745C18.7688 8.99124 18.5381 8.96409 17.5539 8.94372C16.7937 8.93015 16.271 8.95051 15.9249 9.01839ZM17.7575 11.4144C18.443 11.7537 18.4838 12.7515 17.8254 13.0909C17.7032 13.152 17.3435 13.2334 17.0109 13.2674C15.9928 13.3692 15.1104 13.7629 14.4384 14.4077C13.6782 15.1407 13.2574 16.0027 13.1352 17.1091C13.0945 17.4688 13.0198 17.8557 12.9655 17.9575C12.823 18.229 12.4836 18.4191 12.1375 18.4191C11.7574 18.4191 11.4994 18.263 11.3094 17.9236C11.1736 17.6792 11.1601 17.591 11.194 17.0684C11.3908 14.3466 13.3796 12.032 15.9995 11.4687C16.9294 11.2718 17.4453 11.2515 17.7575 11.4144Z" fill="#64748B"/>
<path d="M1.41321 16.5187C0.564772 16.7223 0.435809 17.9373 1.21637 18.3106C1.42 18.4056 1.72543 18.4192 3.32728 18.4192C5.04452 18.4192 5.22779 18.4056 5.45856 18.2902C5.78436 18.1205 5.96762 17.8015 5.96084 17.4146C5.96084 17.0888 5.83187 16.8581 5.51286 16.6273C5.33639 16.4915 5.22779 16.4848 3.4834 16.4712C2.46527 16.4644 1.53538 16.4848 1.41321 16.5187Z" fill="#64748B"/>
<path d="M29.432 16.5187C29.1402 16.5934 28.7601 16.9938 28.7397 17.245C28.7125 17.7812 28.8619 18.0934 29.242 18.2902C29.4727 18.4056 29.656 18.4192 31.3665 18.4192C33.1108 18.4192 33.2602 18.4124 33.5045 18.2834C33.8235 18.1205 34 17.8151 34 17.4146C34 17.1024 33.8643 16.8649 33.5452 16.6273C33.3688 16.4915 33.2602 16.4848 31.5158 16.4712C30.4977 16.4644 29.561 16.4848 29.432 16.5187Z" fill="#64748B"/>
<path d="M8.22107 25.3014C7.94957 25.4236 5.43141 27.9689 5.34317 28.2132C5.23457 28.4915 5.24815 28.7087 5.39747 28.9938C5.53322 29.2653 5.81151 29.4621 6.08301 29.4893C6.59886 29.5368 6.59207 29.5368 8.06496 28.0775C9.53106 26.6114 9.66681 26.4281 9.57857 26.0005C9.43604 25.376 8.79801 25.0435 8.22107 25.3014Z" fill="#64748B"/>
<path d="M25.6989 25.2812C25.2848 25.4509 25.0405 25.8989 25.1219 26.3468C25.1627 26.5573 25.3867 26.822 26.5677 28.0098C27.6401 29.089 28.027 29.4352 28.2103 29.4827C28.7057 29.6184 29.2216 29.313 29.3709 28.7971C29.5202 28.3084 29.3709 28.098 27.9184 26.6523C27.2057 25.9328 26.527 25.3219 26.4251 25.2812C26.1944 25.193 25.9229 25.193 25.6989 25.2812Z" fill="#64748B"/>
<path d="M13.909 30.2701C13.495 30.4737 13.4135 30.7113 13.4135 31.6819C13.4135 32.2588 13.4474 32.6185 13.5085 32.7679C13.6579 33.1344 14.004 33.467 14.3977 33.6299L14.7642 33.7792L14.9 34.2883C15.0561 34.8584 15.2936 35.2521 15.5719 35.3946C15.7009 35.4625 16.1353 35.4964 17.1127 35.51C18.7553 35.5372 18.9793 35.51 19.2915 35.2385C19.5766 34.9874 19.6648 34.8177 19.8209 34.2272C19.9363 33.7792 19.9363 33.7792 20.3096 33.6299C20.744 33.4466 21.097 33.0665 21.2191 32.6457C21.2666 32.4692 21.287 32.0416 21.2734 31.5325C21.2531 30.7723 21.2395 30.7045 21.0834 30.5348C20.7304 30.1547 20.8119 30.1615 17.3367 30.1615C14.5334 30.1615 14.099 30.175 13.909 30.2701Z" fill="#64748B"/>
</svg>
