<svg width="12" height="17" viewBox="0 0 12 17" fill="none" xmlns="http://www.w3.org/2000/svg">
<path fill-rule="evenodd" clip-rule="evenodd" d="M4 4.86487C4 3.7603 4.89543 2.86487 6 2.86487C7.09294 2.86487 8 3.77563 8 4.8919C8 5.44418 8.44772 5.8919 9 5.8919C9.55228 5.8919 10 5.44418 10 4.8919C10 2.69445 8.22076 0.864868 6 0.864868C3.79086 0.864868 2 2.65573 2 4.86487V7.91892C0.895431 7.91892 0 8.81435 0 9.91892V15C0 16.1046 0.895431 17 2 17H10C11.1046 17 12 16.1046 12 15V9.91892C12 8.81435 11.1046 7.91892 10 7.91892H4V4.86487ZM6 10.7027C6.55228 10.7027 7 11.1504 7 11.7027V13.2162C7 13.7685 6.55228 14.2162 6 14.2162C5.44772 14.2162 5 13.7685 5 13.2162V11.7027C5 11.1504 5.44772 10.7027 6 10.7027Z" fill="white"/>
</svg>
