<svg width="30" height="34" viewBox="0 0 30 34" fill="none" xmlns="http://www.w3.org/2000/svg">
<path d="M28.0088 0.0424004C27.8835 0.0743523 27.6328 0.1782 27.4604 0.274055C27.288 0.369915 22.8458 3.24565 17.5888 6.66457L8.03834 12.8873L7.63878 12.6237C7.09819 12.2802 6.7613 12.1364 6.07185 11.9927C3.74496 11.5054 1.41808 12.6637 0.462252 14.7885C-0.00782647 15.8429 8.15258e-06 15.6592 8.15258e-06 25.253V34H5.01417H10.0283L10.0048 25.0293C9.98917 20.1006 9.96566 16.0027 9.94999 15.9148C9.91866 15.795 11.5953 14.6527 19.5788 9.38853C24.8985 5.88173 29.3485 2.9421 29.4661 2.84624C30.0615 2.40689 30.179 1.40837 29.7168 0.753345C29.3172 0.186188 28.5964 -0.117363 28.0088 0.0424004ZM5.78197 15.4595C6.36957 15.7711 6.65945 16.2663 6.65945 16.9853C6.65945 18.0077 6.01701 18.6628 5.01417 18.6628C4.01134 18.6628 3.3689 18.0077 3.3689 16.9853C3.3689 16.2663 3.65878 15.7711 4.26988 15.4435C4.60677 15.2598 5.41374 15.2678 5.78197 15.4595Z" fill="#64748B"/>
</svg>
