<svg width="30" height="24" viewBox="0 0 30 24" fill="none" xmlns="http://www.w3.org/2000/svg">
<path fill-rule="evenodd" clip-rule="evenodd" d="M0 6.5V22C0 23.1046 0.895431 24 2 24H28C29.1046 24 30 23.1046 30 22V6.5C30 5.39543 29.1046 4.5 28 4.5H23.5704C22.9017 4.5 22.2772 4.1658 21.9063 3.6094L20.0937 0.8906C19.7228 0.334202 19.0983 0 18.4296 0H11.5704C10.9017 0 10.2772 0.334202 9.90627 0.8906L8.09373 3.6094C7.7228 4.1658 7.09834 4.5 6.42963 4.5H2C0.89543 4.5 0 5.39543 0 6.5ZM15 18C17.4853 18 19.5 15.9853 19.5 13.5C19.5 11.0147 17.4853 9 15 9C12.5147 9 10.5 11.0147 10.5 13.5C10.5 15.9853 12.5147 18 15 18Z" fill="#ADBECE"/>
</svg>
