<svg width="13" height="14" viewBox="0 0 13 14" fill="none" xmlns="http://www.w3.org/2000/svg">
<path d="M12.057 8.31852C11.9887 8.38663 11.7337 8.6745 11.4942 8.91353C10.0969 10.4107 6.44849 12.8588 4.53992 13.608C4.25016 13.7276 3.51739 13.982 3.1246 14C2.74984 14 2.39182 13.9139 2.05055 13.7443C1.62428 13.5065 1.28429 13.1313 1.09627 12.6892C0.976497 12.3833 0.788474 11.4645 0.788474 11.4478C0.601738 10.4441 0.5 8.81201 0.5 7.00771C0.5 5.2908 0.601738 3.72554 0.75499 2.70516C0.771732 2.68717 0.959755 1.54727 1.16452 1.1566C1.53928 0.442079 2.27205 -7.7459e-08 3.05634 -1.11741e-07L3.1246 -1.14725e-07C3.63587 0.0167063 4.70992 0.46007 4.70992 0.475491C6.51674 1.22471 10.0789 3.55462 11.5109 5.10318C11.5109 5.10318 11.9153 5.50156 12.0905 5.74959C12.3635 6.10685 12.5 6.54893 12.5 6.991C12.5 7.48449 12.3467 7.94327 12.057 8.31852Z" fill="white"/>
</svg>
