<svg width="20" height="20" viewBox="0 0 20 20" fill="none" xmlns="http://www.w3.org/2000/svg">
<path fill-rule="evenodd" clip-rule="evenodd" d="M13.119 10.857H14.717V9.357H13.119V10.857ZM9.38399 10.857H10.983V9.357H9.38399V10.857ZM5.64999 10.857H7.24899V9.357H5.64999V10.857ZM17.085 2.846C15.25 1.011 12.809 0 10.209 0C7.60999 0 5.16699 1.011 3.33199 2.847C1.49199 4.686 0.479994 7.131 0.481994 9.73C0.481994 12.366 1.86599 14.878 2.36799 15.702L0.0249939 19.438L0.937994 19.43C0.995994 19.43 6.74799 19.38 9.99799 19.45C10.071 19.451 10.143 19.452 10.215 19.452C12.811 19.452 15.243 18.445 17.085 16.602C20.877 12.809 20.877 6.639 17.085 2.846Z" fill="#ADBECE"/>
</svg>
