<svg width="139" height="36" viewBox="0 0 139 36" fill="none" xmlns="http://www.w3.org/2000/svg">
<path d="M18.193 14.1613L30.531 1.67664C31.0693 1.14213 32.1013 0.86744 32.8362 1.06307L49.6404 5.65533M18.9237 13.8962L34.3613 18.005C34.9126 18.1517 35.4793 18.7146 35.627 19.2622L39.7635 34.5963C39.9112 35.1439 39.584 35.4688 39.0327 35.3221L23.5952 31.2133C23.0439 31.0666 22.4772 30.5037 22.3295 29.9561L18.193 14.6221C18.0453 14.0745 18.3724 13.7495 18.9237 13.8962ZM37.7459 17.1039L49.0469 5.8786C49.4505 5.47773 49.8974 5.59668 50.0452 6.14428L54.1816 21.4784C54.3294 22.026 54.1219 22.7949 53.7184 23.1957L42.4173 34.4211C42.0137 34.8219 41.5668 34.703 41.4191 34.1554L37.2826 18.8213C37.1349 18.2737 37.3423 17.5048 37.7459 17.1039Z" stroke="#60CFFF"/>
<path fill-rule="evenodd" clip-rule="evenodd" d="M61.7202 11.847H63.5588V17.3628L69.6951 11.847H72.2874L65.3262 18.111L72.5657 24.6249H69.973L63.5588 18.8774V24.6249H61.7202V11.847Z" fill="black" stroke="black" stroke-linecap="round"/>
<path fill-rule="evenodd" clip-rule="evenodd" d="M1 11.847H2.83858V17.3628L8.97486 11.847H11.5672L4.60598 18.111L11.8455 24.6249H9.25273L2.83858 18.8774V24.6249H1V11.847Z" fill="black" stroke="black" stroke-linecap="round"/>
<path fill-rule="evenodd" clip-rule="evenodd" d="M79.1737 22.7982V11.847H81.0128V22.7982H88.3597V11.847H90.1988V22.7982C90.1988 23.0476 90.151 23.2838 90.055 23.5067C89.9595 23.7294 89.8281 23.9239 89.6605 24.0902C89.4919 24.2573 89.2921 24.3904 89.0726 24.4821C88.8484 24.5773 88.611 24.6249 88.3597 24.6249H81.0128C80.7615 24.6249 80.5236 24.5773 80.2995 24.4821C80.0749 24.3872 79.8792 24.2566 79.712 24.0902C79.5439 23.9229 79.4098 23.7247 79.317 23.5067C79.2215 23.2838 79.1737 23.0476 79.1737 22.7982Z" fill="black" stroke="black" stroke-linecap="round"/>
<path fill-rule="evenodd" clip-rule="evenodd" d="M108.628 20.8825V21.524C108.634 21.9382 108.582 22.3513 108.474 22.7512C108.209 23.6685 107.605 24.249 106.662 24.4926C106.284 24.5852 105.896 24.6296 105.506 24.6249H98.4644V11.847H105.139C106.79 11.847 107.786 12.4997 108.127 13.8052C108.22 14.1819 108.265 14.5688 108.26 14.9567V15.1884C108.26 15.9074 108.145 16.4941 107.915 16.9485C107.688 17.3998 107.309 17.7576 106.843 17.9595C107.112 18.0428 107.357 18.1618 107.579 18.3163C107.79 18.4647 107.971 18.6504 108.114 18.8642C108.124 18.879 108.134 18.8939 108.144 18.9089C108.299 19.1495 108.419 19.4331 108.503 19.7598C108.586 20.0864 108.628 20.4607 108.628 20.8825ZM105.453 19.0558H100.268V22.8338H105.453C105.937 22.8338 106.287 22.7209 106.502 22.4953C106.597 22.393 106.67 22.2726 106.717 22.1413C106.757 22.0357 106.785 21.9175 106.803 21.7868C106.818 21.6701 106.826 21.5526 106.825 21.435V20.4459C106.826 20.319 106.817 20.1921 106.8 20.0664C106.756 19.7704 106.657 19.5433 106.502 19.3852C106.403 19.2864 106.283 19.2106 106.15 19.163C105.962 19.0915 105.729 19.0558 105.453 19.0558ZM105.085 13.6382H100.268V17.2738H105.211C105.329 17.2696 105.447 17.2558 105.563 17.2323C105.827 17.1776 106.028 17.0711 106.166 16.9129C106.249 16.8152 106.313 16.7029 106.355 16.5817C106.391 16.4804 106.418 16.3673 106.435 16.2423C106.45 16.1234 106.458 16.0036 106.457 15.8837V15.0461C106.458 14.919 106.449 14.792 106.432 14.666C106.413 14.5358 106.383 14.4188 106.343 14.3148C106.296 14.1895 106.226 14.0746 106.134 13.9767C106.033 13.8737 105.911 13.7946 105.775 13.7454C105.67 13.7055 105.554 13.6768 105.424 13.6592C105.311 13.6446 105.198 13.6375 105.085 13.6382Z" fill="black" stroke="black" stroke-linecap="round"/>
<path fill-rule="evenodd" clip-rule="evenodd" d="M116.836 24.6249V11.847H126.211V13.6738H118.675V17.3272H125.107V19.1539H118.675V22.7982H126.211V24.6249H116.836Z" fill="black" stroke="black" stroke-linecap="round"/>
<path d="M131.27 10.3326V9.85327H134.117V10.3313H132.97V13.5337H132.416V10.3339L131.27 10.3326ZM134.645 9.85454H135.318L136.491 12.7141H136.534L137.705 9.85454H138.379V13.535H137.85V10.8701H137.816L136.731 13.5261H136.292L135.207 10.8689H135.173V13.5337H134.645V9.85454Z" fill="black"/>
</svg>
