<?xml version="1.0" encoding="utf-8"?>
<!-- Generator: Adobe Illustrator 26.0.3, SVG Export Plug-In . SVG Version: 6.00 Build 0)  -->
<svg version="1.1" id="Слой_1" xmlns="http://www.w3.org/2000/svg" xmlns:xlink="http://www.w3.org/1999/xlink" x="0px" y="0px"
	 viewBox="0 0 287.4 27.76" width="328" height="33" style="enable-background:new 0 0 287.4 27.76;" xml:space="preserve">
<style type="text/css">
	.st0{fill:#43414E;}
	
		.st1{clip-path:url(#SVGID_00000031208089390811087690000000974573709110325140_);fill:url(#SVGID_00000124121113163182293930000010279371172437095297_);}
	
		.st2{clip-path:url(#SVGID_00000049900951125635750390000004722014777621905074_);fill:url(#SVGID_00000077306384362164093280000005551484716608339133_);}
	
		.st3{clip-path:url(#SVGID_00000124158039933592926130000017682055455580238987_);fill:url(#SVGID_00000115479165078356545590000006882329528908561325_);}
	
		.st4{clip-path:url(#SVGID_00000003802298837279835290000012928875460287788930_);fill:url(#SVGID_00000043431057039446414400000011539813409719127229_);}
	
		.st5{clip-path:url(#SVGID_00000139285875598998833220000008141675280428480913_);fill:url(#SVGID_00000096758840770862823370000008198266107817083296_);}
</style>
<g>
	<path class="st0" d="M48.07,20.55c-1.7,0-3.11-0.53-4.23-1.59c-1.12-1.08-1.69-2.45-1.69-4.09c0-1.67,0.56-3.03,1.67-4.09
		c1.12-1.06,2.54-1.59,4.25-1.59c1.06,0,2.03,0.23,2.89,0.69v2.26c-0.84-0.56-1.8-0.84-2.87-0.84c-1.03,0-1.9,0.34-2.61,1.02
		c-0.69,0.67-1.03,1.52-1.03,2.56c0,1.04,0.35,1.9,1.06,2.58c0.7,0.67,1.59,1,2.67,1c1.2,0,2.2-0.32,3-0.95v2.26
		C50.29,20.28,49.25,20.55,48.07,20.55"/>
	<path class="st0" d="M58.69,15.53v2.86h2.83c0.56,0,1-0.12,1.31-0.37c0.31-0.24,0.47-0.6,0.47-1.05c0-0.46-0.16-0.81-0.47-1.06
		c-0.31-0.25-0.75-0.38-1.31-0.38H58.69z M58.69,11.27v2.41h2.53c0.47,0,0.84-0.1,1.1-0.31c0.26-0.21,0.4-0.5,0.4-0.88
		c0-0.39-0.13-0.68-0.4-0.9c-0.27-0.21-0.63-0.32-1.1-0.32H58.69z M61.94,20.33h-5.5V9.39h5.14c1.01,0,1.82,0.24,2.41,0.72
		c0.6,0.48,0.9,1.15,0.9,2.01c0,0.53-0.13,0.98-0.39,1.36c-0.26,0.37-0.59,0.64-0.98,0.81c0.59,0.12,1.11,0.45,1.56,0.97
		c0.44,0.51,0.66,1.16,0.66,1.95c0,0.93-0.34,1.68-1.03,2.25C64.03,20.04,63.11,20.33,61.94,20.33"/>
	<path class="st0" d="M74.91,14.02h2.69v-2.66h-2.69c-0.51,0-0.91,0.12-1.2,0.35c-0.29,0.23-0.43,0.56-0.43,0.98
		c0,0.43,0.14,0.76,0.43,0.98C74,13.9,74.4,14.02,74.91,14.02 M72.47,20.33h-2.59l3.42-4.67c-0.72-0.22-1.28-0.6-1.68-1.13
		c-0.4-0.54-0.6-1.17-0.6-1.9c0-0.96,0.34-1.73,1.02-2.33c0.67-0.6,1.58-0.91,2.75-0.91h5.06v10.94h-2.25v-4.42h-1.91L72.47,20.33z"
		/>
	<path class="st0" d="M88.9,20.55c-1.58,0-2.9-0.34-3.95-1.01v-2.19c0.48,0.33,1.05,0.6,1.72,0.8c0.67,0.2,1.31,0.3,1.92,0.3
		c0.83,0,1.48-0.14,1.95-0.42c0.46-0.28,0.7-0.67,0.7-1.17c0-0.44-0.21-0.77-0.62-1.01c-0.41-0.23-0.98-0.35-1.71-0.35h-1.38v-1.89
		h1.64c1.18,0,1.77-0.4,1.77-1.2c0-0.37-0.18-0.65-0.55-0.85c-0.36-0.2-0.86-0.3-1.5-0.3c-1.26,0-2.43,0.27-3.5,0.81V9.99
		C86.4,9.45,87.6,9.18,89,9.18c1.27,0,2.27,0.29,3.01,0.86c0.76,0.57,1.14,1.32,1.14,2.25c0,0.52-0.14,0.97-0.43,1.35
		c-0.29,0.38-0.64,0.66-1.05,0.84c0.56,0.21,1.02,0.54,1.36,0.99s0.52,1,0.52,1.63c0,0.97-0.42,1.79-1.25,2.47
		C91.47,20.22,90.34,20.55,88.9,20.55"/>
	<path class="st0" d="M101.03,14.91v3.44h2.28c0.66,0,1.17-0.15,1.54-0.45c0.37-0.3,0.56-0.72,0.56-1.26c0-0.55-0.18-0.98-0.56-1.28
		c-0.37-0.3-0.88-0.45-1.54-0.45H101.03z M103.43,20.33h-4.66V9.39h2.25V13h2.41c1.3,0,2.33,0.34,3.09,1.03
		c0.76,0.67,1.14,1.55,1.14,2.64c0,1.09-0.38,1.97-1.14,2.64C105.75,19.99,104.72,20.33,103.43,20.33"/>
	<path class="st0" d="M114.96,11.36v2.72h2.38c0.54,0,0.96-0.12,1.26-0.35c0.3-0.24,0.45-0.57,0.45-1.01c0-0.44-0.15-0.77-0.45-1.01
		c-0.3-0.23-0.72-0.35-1.26-0.35H114.96z M114.96,20.33h-2.25V9.39h4.78c1.18,0,2.1,0.31,2.78,0.92c0.69,0.6,1.03,1.4,1.03,2.38
		c0,0.99-0.34,1.79-1.03,2.39c-0.68,0.61-1.6,0.92-2.78,0.92h-2.53V20.33z"/>
	<polygon class="st0" points="134.55,20.33 126.35,20.33 126.35,9.39 134.38,9.39 134.38,11.41 128.6,11.41 128.6,13.52 
		133.26,13.52 133.26,15.5 128.6,15.5 128.6,18.32 134.55,18.32 	"/>
	<path class="st0" d="M145,20.55c-1.7,0-3.11-0.53-4.23-1.59c-1.12-1.08-1.69-2.45-1.69-4.09c0-1.67,0.56-3.03,1.67-4.09
		c1.12-1.06,2.54-1.59,4.25-1.59c1.06,0,2.03,0.23,2.89,0.69v2.26c-0.84-0.56-1.8-0.84-2.87-0.84c-1.03,0-1.9,0.34-2.61,1.02
		c-0.69,0.67-1.03,1.52-1.03,2.56c0,1.04,0.35,1.9,1.06,2.58c0.7,0.67,1.59,1,2.67,1c1.2,0,2.2-0.32,3-0.95v2.26
		C147.23,20.28,146.19,20.55,145,20.55"/>
	<path class="st0" d="M154.94,20.55c-0.75,0-1.3-0.1-1.66-0.31v-1.98c0.35,0.2,0.78,0.3,1.26,0.3c0.46,0,0.82-0.1,1.09-0.31
		c0.26-0.2,0.54-0.6,0.84-1.2l-4.14-7.64h2.48l2.76,5.37l2.42-5.37h2.39l-4.03,8.56C157.56,19.68,156.42,20.55,154.94,20.55"/>
	<path class="st0" d="M169.33,11.36v2.72h2.38c0.54,0,0.96-0.12,1.26-0.35c0.3-0.24,0.45-0.57,0.45-1.01c0-0.44-0.15-0.77-0.45-1.01
		c-0.3-0.23-0.72-0.35-1.26-0.35H169.33z M169.33,20.33h-2.25V9.39h4.78c1.18,0,2.1,0.31,2.78,0.92c0.69,0.6,1.03,1.4,1.03,2.38
		c0,0.99-0.34,1.79-1.03,2.39c-0.68,0.61-1.6,0.92-2.78,0.92h-2.53V20.33z"/>
	<path class="st0" d="M186.26,20.55c-1.7,0-3.11-0.53-4.23-1.59c-1.12-1.08-1.69-2.45-1.69-4.09c0-1.67,0.56-3.03,1.67-4.09
		c1.12-1.06,2.54-1.59,4.25-1.59c1.06,0,2.03,0.23,2.89,0.69v2.26c-0.84-0.56-1.8-0.84-2.87-0.84c-1.03,0-1.9,0.34-2.61,1.02
		c-0.69,0.67-1.03,1.52-1.03,2.56c0,1.04,0.35,1.9,1.06,2.58c0.7,0.67,1.59,1,2.67,1c1.2,0,2.2-0.32,3-0.95v2.26
		C188.48,20.28,187.45,20.55,186.26,20.55"/>
	<rect x="194.93" y="13.29" class="st0" width="4.83" height="1.98"/>
	<polygon class="st0" points="208.05,20.33 205.8,20.33 205.8,9.39 208.05,9.39 208.05,13.71 212.08,9.39 214.83,9.39 210.19,14.41 
		215.63,20.33 212.76,20.33 208.05,15.28 	"/>
	<path class="st0" d="M221.74,20.55c-0.75,0-1.3-0.1-1.66-0.31v-1.98c0.35,0.2,0.78,0.3,1.26,0.3c0.46,0,0.82-0.1,1.09-0.31
		c0.26-0.2,0.54-0.6,0.84-1.2l-4.14-7.64h2.49l2.76,5.37l2.42-5.37h2.39l-4.03,8.56C224.36,19.68,223.22,20.55,221.74,20.55"/>
	<path class="st0" d="M236.13,15.03v3.31h2.3c0.66,0,1.16-0.14,1.52-0.42c0.35-0.28,0.53-0.69,0.53-1.22c0-0.53-0.18-0.94-0.54-1.23
		c-0.36-0.29-0.86-0.44-1.51-0.44H236.13z M238.59,20.33h-4.72V9.39h7.93v2.02h-5.69v1.75h2.47c1.28,0,2.29,0.33,3.01,1
		c0.75,0.68,1.12,1.54,1.12,2.59c0,1.05-0.37,1.92-1.11,2.59C240.89,20,239.88,20.33,238.59,20.33"/>
	<path class="st0" d="M252.75,12.14l-1.61,3.8h3.2L252.75,12.14z M249.36,20.33H247l4.69-11h2.15l4.69,11h-2.39l-1.08-2.53h-4.62
		L249.36,20.33z"/>
	<polygon class="st0" points="265.57,20.33 263.33,20.33 263.33,9.39 265.57,9.39 265.57,13.49 270.51,13.49 270.51,9.39 
		272.75,9.39 272.75,20.33 270.51,20.33 270.51,15.53 265.57,15.53 	"/>
	<path class="st0" d="M280.76,14.91v3.44h2.28c0.66,0,1.17-0.15,1.54-0.45c0.37-0.3,0.56-0.72,0.56-1.26c0-0.55-0.19-0.98-0.56-1.28
		c-0.37-0.3-0.88-0.45-1.54-0.45H280.76z M283.16,20.33h-4.66V9.39h2.25V13h2.41c1.3,0,2.33,0.34,3.09,1.03
		c0.76,0.67,1.14,1.55,1.14,2.64c0,1.09-0.38,1.97-1.14,2.64C285.49,19.99,284.46,20.33,283.16,20.33"/>
	<g>
		<defs>
			<path id="SVGID_1_" d="M15.81,12.04c-3.41,4.43-9.65,8.31-11.81,9.58l0.83,2.03c1.99-1.14,8.86-5.3,12.7-10.29
				c3.18-4.13,6.75-5.81,8.14-6.35L24.85,5C23.16,5.65,19.29,7.52,15.81,12.04"/>
		</defs>
		<clipPath id="SVGID_00000025419432811052723380000010866619546660023715_">
			<use xlink:href="#SVGID_1_"  style="overflow:visible;"/>
		</clipPath>
		
			<linearGradient id="SVGID_00000039850255671849734600000016761206772629546943_" gradientUnits="userSpaceOnUse" x1="-225.407" y1="311.6294" x2="-224.407" y2="311.6294" gradientTransform="matrix(20.251 -15.3329 -15.3329 -20.251 9348.1465 2876.2488)">
			<stop  offset="0" style="stop-color:#1EB1E7"/>
			<stop  offset="2.800000e-07" style="stop-color:#1EB1E7"/>
			<stop  offset="0.3905" style="stop-color:#45BBD9"/>
			<stop  offset="0.7852" style="stop-color:#67C3CD"/>
			<stop  offset="1" style="stop-color:#74C6C8"/>
		</linearGradient>
		
			<polygon style="clip-path:url(#SVGID_00000025419432811052723380000010866619546660023715_);fill:url(#SVGID_00000039850255671849734600000016761206772629546943_);" points="
			-4.97,11.79 17.78,-5.43 34.65,16.85 11.9,34.07 		"/>
	</g>
	<g>
		<defs>
			<path id="SVGID_00000054225235821652292140000008851592757493563803_" d="M0,11.76l0.83,2.04c2.2-1.29,7.81-4.8,11.51-9.07
				L11.4,2.44C8.17,6.62,2.43,10.31,0,11.76"/>
		</defs>
		<clipPath id="SVGID_00000072245634252698130900000001273778633841305791_">
			<use xlink:href="#SVGID_00000054225235821652292140000008851592757493563803_"  style="overflow:visible;"/>
		</clipPath>
		
			<linearGradient id="SVGID_00000023263936302007392990000007991274385099423905_" gradientUnits="userSpaceOnUse" x1="-225.407" y1="311.6835" x2="-224.407" y2="311.6835" gradientTransform="matrix(20.2511 -15.3329 -15.3329 -20.2511 9342.8496 2869.2549)">
			<stop  offset="0" style="stop-color:#1EB1E7"/>
			<stop  offset="2.800000e-07" style="stop-color:#1EB1E7"/>
			<stop  offset="0.3905" style="stop-color:#45BBD9"/>
			<stop  offset="0.7852" style="stop-color:#67C3CD"/>
			<stop  offset="1" style="stop-color:#74C6C8"/>
		</linearGradient>
		
			<polygon style="clip-path:url(#SVGID_00000072245634252698130900000001273778633841305791_);fill:url(#SVGID_00000023263936302007392990000007991274385099423905_);" points="
			-5.47,6.57 7.84,-3.5 17.8,9.66 4.49,19.73 		"/>
	</g>
	<g>
		<defs>
			<path id="SVGID_00000018920135563389943460000001313079809459109773_" d="M13.6,7.11c-3.32,4.32-9.34,8.12-11.64,9.48l0.83,2.03
				c2.19-1.27,8.8-5.34,12.53-10.19c3.33-4.33,7.08-5.96,8.32-6.42L22.82,0C21.23,0.58,17.21,2.42,13.6,7.11"/>
		</defs>
		<clipPath id="SVGID_00000109735742554272705920000014166702703004639897_">
			<use xlink:href="#SVGID_00000018920135563389943460000001313079809459109773_"  style="overflow:visible;"/>
		</clipPath>
		
			<linearGradient id="SVGID_00000086683376043720741210000003075046123324212924_" gradientUnits="userSpaceOnUse" x1="-225.407" y1="311.6257" x2="-224.407" y2="311.6257" gradientTransform="matrix(20.2511 -15.3329 -15.3329 -20.2511 9344.9561 2872.0376)">
			<stop  offset="0" style="stop-color:#1EB1E7"/>
			<stop  offset="2.800000e-07" style="stop-color:#1EB1E7"/>
			<stop  offset="0.3905" style="stop-color:#45BBD9"/>
			<stop  offset="0.7852" style="stop-color:#67C3CD"/>
			<stop  offset="1" style="stop-color:#74C6C8"/>
		</linearGradient>
		
			<polygon style="clip-path:url(#SVGID_00000109735742554272705920000014166702703004639897_);fill:url(#SVGID_00000086683376043720741210000003075046123324212924_);" points="
			-7,6.78 15.74,-10.43 32.6,11.84 9.86,29.05 		"/>
	</g>
	<g>
		<defs>
			<path id="SVGID_00000113336709481413376290000018409317236784808636_" d="M20.48,21.02l0.87,2.14l0.12,0.09
				c3.24-4.21,6.88-5.88,8.22-6.38l-0.82-2.01C27.32,15.44,23.8,17.1,20.48,21.02"/>
		</defs>
		<clipPath id="SVGID_00000027572330194699266800000000191964009405862537_">
			<use xlink:href="#SVGID_00000113336709481413376290000018409317236784808636_"  style="overflow:visible;"/>
		</clipPath>
		
			<linearGradient id="SVGID_00000038413407732983058360000008253143315679176086_" gradientUnits="userSpaceOnUse" x1="-225.407" y1="311.6454" x2="-224.407" y2="311.6454" gradientTransform="matrix(20.251 -15.3329 -15.3329 -20.251 9354.4023 2884.5115)">
			<stop  offset="0" style="stop-color:#1EB1E7"/>
			<stop  offset="2.800000e-07" style="stop-color:#1EB1E7"/>
			<stop  offset="0.3905" style="stop-color:#45BBD9"/>
			<stop  offset="0.7852" style="stop-color:#67C3CD"/>
			<stop  offset="1" style="stop-color:#74C6C8"/>
		</linearGradient>
		
			<polygon style="clip-path:url(#SVGID_00000027572330194699266800000000191964009405862537_);fill:url(#SVGID_00000038413407732983058360000008253143315679176086_);" points="
			16.44,17.92 26.33,10.43 33.72,20.2 23.83,27.68 		"/>
	</g>
	<g>
		<defs>
			<path id="SVGID_00000129174806364828429730000014864414745722185626_" d="M18.12,16.53c-3.64,4.73-10.52,8.84-12.19,9.8
				l0.58,1.43h1.28c2.56-1.52,8.56-5.37,12.06-9.91c2.9-3.77,6.13-5.5,7.73-6.18l-0.82-2.02C24.89,10.43,21.33,12.34,18.12,16.53"/>
		</defs>
		<clipPath id="SVGID_00000129195105284745423000000002112386182015943307_">
			<use xlink:href="#SVGID_00000129174806364828429730000014864414745722185626_"  style="overflow:visible;"/>
		</clipPath>
		
			<linearGradient id="SVGID_00000125576750120093090580000006605655732245269897_" gradientUnits="userSpaceOnUse" x1="-225.407" y1="311.6466" x2="-224.407" y2="311.6466" gradientTransform="matrix(20.2511 -15.3329 -15.3329 -20.2511 9351.2344 2880.3291)">
			<stop  offset="0" style="stop-color:#1EB1E7"/>
			<stop  offset="2.800000e-07" style="stop-color:#1EB1E7"/>
			<stop  offset="0.3905" style="stop-color:#45BBD9"/>
			<stop  offset="0.7852" style="stop-color:#67C3CD"/>
			<stop  offset="1" style="stop-color:#74C6C8"/>
		</linearGradient>
		
			<polygon style="clip-path:url(#SVGID_00000129195105284745423000000002112386182015943307_);fill:url(#SVGID_00000125576750120093090580000006605655732245269897_);" points="
			-2.79,16.25 19.68,-0.76 36.28,21.16 13.81,38.17 		"/>
	</g>
</g>
</svg>
