<svg width="16" height="20" viewBox="0 0 16 20" fill="none" xmlns="http://www.w3.org/2000/svg">
<path d="M12 0H4C1.7944 0 0 1.86917 0 4.16667V15.8333C0 18.1308 1.7944 20 4 20H12C14.2056 20 16 18.1308 16 15.8333V4.16667C16 1.86917 14.2056 0 12 0ZM8.0184 3.47583C8.4672 3.47583 8.7144 5.36333 8.8 7.5H7.2368C7.3224 5.36333 7.5696 3.47583 8.0184 3.47583ZM8.8 9.16667C8.7144 11.3033 8.452 13.1908 8.0184 13.1908C7.5848 13.1908 7.3224 11.3033 7.2368 9.16667H8.8ZM5.2496 4.265C5.5776 4.0225 6.032 4.31083 5.9512 4.72167C5.7504 5.73417 5.6704 6.7825 5.6392 7.5H3.2912C3.5072 6.16667 4.2328 5.01667 5.2496 4.265ZM3.2912 9.16667H5.6392C5.6704 9.88417 5.7512 10.9325 5.9512 11.945C6.0328 12.3558 5.5784 12.6442 5.2496 12.4017C4.2328 11.65 3.5072 10.5 3.2912 9.16667ZM11.2008 16.6667H4.8C4.3576 16.6667 4 16.2933 4 15.8333C4 15.3733 4.3576 15 4.8 15H11.2C11.6424 15 12 15.3733 12 15.8333C12 16.2933 11.6432 16.6667 11.2008 16.6667ZM10.788 12.4017C10.46 12.6442 10.0056 12.3558 10.0864 11.945C10.2872 10.9325 10.3672 9.88417 10.3984 9.16667H12.7464C12.5304 10.5 11.8048 11.65 10.788 12.4017ZM10.3984 7.5C10.3672 6.7825 10.2864 5.73417 10.0864 4.72167C10.0048 4.31083 10.4592 4.0225 10.788 4.265C11.8048 5.01583 12.5304 6.16667 12.7464 7.5H10.3984Z" fill="white"/>
</svg>
