<svg width="16" height="20" viewBox="0 0 16 20" fill="none" xmlns="http://www.w3.org/2000/svg">
<path fill-rule="evenodd" clip-rule="evenodd" d="M5.2496 4.265C5.5776 4.0225 6.032 4.31083 5.9512 4.72167C5.7504 3.78295 5.6704 4.83128 5.6392 5.54878H4.91245C5.18829 5.78324 5.39517 6.09625 5.50926 6.46456C5.55614 6.61672 5.56395 6.6712 5.57177 7.0037L5.57622 7.21545H5.6392C5.64145 7.26717 5.64396 7.32062 5.64675 7.37564H6.45464V6.73695H6.04446V6.25229C6.04446 5.88785 6.05227 5.73945 6.07375 5.64928C6.14993 5.3412 6.40581 5.03876 6.70856 4.89975C6.80037 4.85842 6.90584 4.81897 6.94295 4.81146C6.94646 4.81084 6.94988 4.81025 6.9532 4.80969C6.96053 4.80846 6.96743 4.80736 6.97394 4.80632C7.00988 4.80058 7.0337 4.79678 7.04946 4.78345C7.0804 4.75727 7.08025 4.69434 7.0798 4.50782C7.07974 4.48347 7.07968 4.45701 7.07968 4.42824C7.07968 4.23475 7.08554 4.06944 7.09335 4.06381C7.09847 4.05724 7.20049 4.05211 7.32909 4.05092C7.41699 3.04167 7.55239 3.15958 7.74112 3.32394C7.82328 3.39549 7.91555 3.47583 8.0184 3.47583C8.12114 3.47583 8.21332 3.39609 8.29541 3.32508C8.48461 3.16141 8.62024 3.04408 8.70817 4.05618L8.90598 4.06005L8.91183 4.42073C8.91232 4.45348 8.91267 4.48332 8.91299 4.5105C8.91515 4.6954 8.91588 4.75774 8.94699 4.7837C8.9628 4.79691 8.98648 4.8007 9.02221 4.80643C9.03146 4.80791 9.04152 4.80952 9.05247 4.81146C9.08958 4.81897 9.19506 4.85842 9.28686 4.89975C9.58962 5.03876 9.84549 5.3412 9.92167 5.64928C9.94315 5.73945 9.95097 5.88785 9.95097 6.25229V6.73695H9.54078V7.37564H10.3909C10.3936 7.32062 10.3962 7.26717 10.3984 7.21545H10.4192L10.4237 7.0037C10.4315 6.6712 10.4393 6.61672 10.4862 6.46456C10.6016 6.09302 10.8058 5.78296 11.0833 5.54878H10.3984C10.3672 4.83128 10.2864 3.78295 10.0864 4.72167C10.0048 4.31083 10.4592 4.0225 10.788 4.265C11.18 4.55446 11.5287 4.50867 11.8216 4.47021C12.18 4.42315 12.4549 4.38706 12.6233 4.98925C12.8032 4.953 12.937 4.92576 12.9551 4.92041L13 4.91102L13 3H3V18H13L13 4.91102L12.9922 6.68247C12.9863 8.40695 12.9844 8.45955 12.9453 8.61547C12.8203 9.10013 12.6269 9.45141 12.2988 9.78203C11.8241 10.2629 11.2421 10.5165 10.5526 10.5447L10.3045 10.556L10.3612 10.6255C10.4432 10.725 10.5643 10.9524 10.6131 11.0951C10.6678 11.2604 10.6932 11.4295 10.6932 11.6249V11.7902H10.9588C11.205 11.7902 11.2245 11.7883 11.2108 11.7564C11.1698 11.6606 11.1542 11.484 11.1757 11.3487C11.2479 10.8641 11.7265 10.524 12.2226 10.6029C12.8476 10.7044 13.1836 11.3562 12.8848 11.8916C12.8144 12.0194 12.6386 12.1865 12.5136 12.2485C12.3027 12.3518 12.2753 12.3537 11.1503 12.3537H10.1111L10.1033 11.8597C10.0936 11.3224 10.0838 11.2679 9.95683 11.0594C9.83768 10.8641 9.59938 10.6762 9.39234 10.6123L9.28881 10.5823L9.14232 10.6743C9.06028 10.725 8.99387 10.7758 8.99387 10.787C8.99387 10.8002 9.11302 11.1045 9.25952 11.4633C9.44898 11.9329 9.5193 12.1264 9.50562 12.1471C9.46461 12.211 9.15209 12.4345 8.98997 12.5153C8.65205 12.6825 8.36883 12.7482 7.9899 12.7482C7.59925 12.7482 7.2711 12.6618 6.92733 12.4721C6.76716 12.3819 6.47417 12.1602 6.47417 12.1283C6.47417 12.1189 6.59332 11.8183 6.73786 11.4596C6.8824 11.1026 7.00155 10.8002 7.00155 10.787C7.00155 10.7758 6.93514 10.725 6.8531 10.6743L6.70661 10.5823L6.60309 10.6123C6.27689 10.7119 5.97219 11.05 5.90968 11.3844C5.89796 11.4464 5.8882 11.6887 5.8882 11.9254V12.3537L5.38035 12.3575L4.87446 12.3631L4.95259 12.4946L4.98287 12.5451C5.01935 12.606 5.0583 12.671 5.07955 12.7031L5.12643 12.782L4.88227 12.9154C4.74749 12.9887 4.63225 13.0488 4.62249 13.0488C4.60491 13.0488 3.17317 10.6443 3.17317 10.6161C3.17317 10.5992 3.59898 10.3606 3.65172 10.3475C3.66539 10.3437 3.86853 10.6668 4.10292 11.0651L4.53068 11.7883L4.91352 11.7902H5.29636L5.30808 11.5497C5.31394 11.4182 5.33347 11.2567 5.35105 11.189C5.39207 11.0369 5.53075 10.757 5.6206 10.6424L5.69092 10.556L5.44285 10.5447C4.79828 10.5184 4.25527 10.2986 3.79626 9.87784C3.41147 9.52655 3.17122 9.11703 3.04425 8.59668C3.013 8.46894 3.0091 8.298 3.00324 6.68435C2.99933 5.71127 3.00128 4.91478 3.00128 4.91478C3.02083 4.91478 3.19873 4.94999 3.41285 4.99452C3.581 4.39097 3.85605 4.42635 4.21496 4.47252C4.50809 4.51022 4.85716 4.55511 5.2496 4.265ZM4.8 16.6667H11.2008C11.6432 16.6667 12 16.2933 12 15.8333C12 15.3733 11.6424 13.0488 11.2 13.0488H4.8C4.3576 13.0488 4 15.3733 4 15.8333C4 16.2933 4.3576 16.6667 4.8 16.6667Z" fill="white"/>
<path fill-rule="evenodd" clip-rule="evenodd" d="M4 0H12C14.2056 0 16 1.86917 16 4.16667V15.8333C16 18.1308 14.2056 20 12 20H4C1.7944 20 0 18.1308 0 15.8333V4.16667C0 1.86917 1.7944 0 4 0ZM8.29541 3.32508C8.21332 3.39609 8.12114 3.47583 8.0184 3.47583C7.91555 3.47583 7.82328 3.39549 7.74112 3.32394C7.55239 3.15958 7.41699 3.04167 7.32909 4.05092L7.38634 4.05066H7.66566V4.8434L7.82778 5.03688C7.91568 5.14396 7.99185 5.23225 7.99771 5.23225C8.00357 5.23225 8.07975 5.14396 8.1696 5.03688L8.32977 4.8434V4.04878L8.70817 4.05618C8.62024 3.04408 8.48461 3.16141 8.29541 3.32508ZM7.22618 5.35247L7.24513 5.35309L7.34142 5.35623L7.50459 5.54878L7.6598 5.73194C7.83559 5.93857 7.98599 6.10764 7.99771 6.10764C8.00748 6.10764 8.15983 5.93857 8.33563 5.73194L8.49084 5.54878L8.65401 5.35623L8.79189 5.358L8.8005 5.35811C9.02122 5.35999 9.18529 5.45579 9.29663 5.65116C9.34936 5.74133 9.35522 5.77139 9.36108 5.96112L9.3689 6.17339H8.95481V7.9392H10.3553H11.0057V7.37001L11.0059 7.21545C11.007 6.84309 11.0135 6.76907 11.0448 6.65053C11.1444 6.27483 11.4042 5.95924 11.7558 5.79017C11.8788 5.73006 12.1308 5.6568 12.3398 5.6211L12.414 5.60795L12.4073 7.21545L12.4023 8.39944L12.3992 8.40989L12.3496 8.57978C12.2436 8.95011 12.0274 9.27935 11.7393 9.52396C11.5919 9.6491 11.4258 9.75209 11.246 9.82712C10.919 9.96289 10.8765 9.97294 10.0885 9.98329L9.96073 9.98491L9.14037 9.99618L8.70674 10.2761C8.61343 10.3359 8.52691 10.3923 8.45596 10.4394C8.42492 10.5703 8.39197 10.6876 8.35712 10.7894C8.40617 10.9125 8.47223 11.0767 8.54462 11.2548C8.69502 11.6249 8.81417 11.9405 8.80831 11.9536C8.79464 11.9931 8.53486 12.1039 8.36102 12.1471C8.15007 12.1978 7.84536 12.1978 7.63441 12.1471C7.46057 12.1039 7.20078 11.9931 7.18711 11.9536C7.18125 11.9405 7.3004 11.6249 7.4508 11.2548C7.53502 11.0476 7.61066 10.8592 7.66092 10.7325C7.63582 10.6536 7.61174 10.5666 7.5887 10.4721C7.51082 10.4196 7.40574 10.3505 7.29063 10.2761L6.85506 9.99618L6.03469 9.98491L5.94925 9.98391C5.22483 9.97532 5.20602 9.97193 5.03853 9.92668C4.7874 9.85652 4.56147 9.7488 4.36625 9.60884C4.01787 9.35908 3.76728 9.00663 3.64586 8.58165L3.59312 8.39944L3.5927 8.30009L3.58815 7.21545L3.5814 5.60795L3.65562 5.6211C3.86462 5.6568 4.11659 5.73006 4.23965 5.79017C4.59123 5.95924 4.85102 6.27483 4.95063 6.65053C4.98188 6.76907 4.98844 6.84309 4.98951 7.21545L4.9897 7.37001V7.9392H5.68244H7.04062V6.17339H6.63043V5.99869C6.63043 5.90476 6.6402 5.79393 6.64996 5.75636C6.69684 5.5948 6.8824 5.41447 7.04843 5.3675C7.08163 5.35811 7.16172 5.3506 7.22618 5.35247ZM10.4158 7.37564H10.3909C10.3936 7.32062 10.3962 7.26717 10.3984 7.21545H10.4192L10.4158 7.37564ZM5.64675 7.37564C5.64396 7.32062 5.64145 7.26717 5.6392 7.21545H5.57622L5.57958 7.37564H5.64675ZM5.6392 5.54878H4.91245C4.71135 5.37785 4.47359 5.24867 4.2084 5.17026C4.13577 5.14885 3.73366 5.06124 3.41285 4.99452C3.581 4.39097 3.85605 4.42635 4.21496 4.47252C4.50809 4.51022 4.85716 4.55511 5.2496 4.265C5.5776 4.0225 6.032 4.31083 5.9512 4.72167C5.7504 3.78295 5.6704 4.83128 5.6392 5.54878ZM13 18L13 4.91102L13 3H3V18H13ZM11.8216 4.47021C12.18 4.42315 12.4549 4.38706 12.6233 4.98925L12.3867 5.03688C12.0995 5.09324 11.8007 5.16274 11.7226 5.18904C11.4806 5.27332 11.2661 5.3946 11.0833 5.54878H10.3984C10.3672 4.83128 10.2864 3.78295 10.0864 4.72167C10.0048 4.31083 10.4592 4.0225 10.788 4.265C11.18 4.55446 11.5287 4.50867 11.8216 4.47021ZM11.2008 16.6667H4.8C4.3576 16.6667 4 16.2933 4 15.8333C4 15.3733 4.3576 13.0488 4.8 13.0488H11.2C11.6424 13.0488 12 15.3733 12 15.8333C12 16.2933 11.6432 16.6667 11.2008 16.6667ZM12.3847 11.3525C12.3535 11.2792 12.2656 11.1984 12.1914 11.1721C11.9824 11.0951 11.748 11.2585 11.748 11.4783C11.748 11.6343 11.914 11.7902 12.08 11.7902C12.3066 11.7902 12.4726 11.5516 12.3847 11.3525ZM11.2727 15.3659H4.72727C4.39255 15.3659 4.12121 15.6389 4.12121 15.9756C4.12121 16.3124 4.39255 16.5854 4.72727 16.5854H11.2727C11.6074 16.5854 11.8788 16.3124 11.8788 15.9756C11.8788 15.6389 11.6074 15.3659 11.2727 15.3659Z" fill="white"/>
</svg>
